<?xml version="1.0" encoding="UTF-8" standalone="no"?>
<svg
   width="36.976135"
   height="36.975727"
   viewBox="0 0 36.976136 36.975726"
   version="1.1"
   id="svg19"
   xmlns="http://www.w3.org/2000/svg"
   xmlns:svg="http://www.w3.org/2000/svg">
  <defs
     id="defs23" />
  <g
     id="layer1"
     transform="translate(-72.196928,-6.3683421e-4)">
    <g
       id="Group_1432-4"
       data-name="Group 1432"
       transform="translate(72.196498,2.076705e-4)">
      <path
         id="Path_3101-1"
         data-name="Path 3101"
         d="M 0.636,16.954 16.954,0.636 a 2.169,2.169 0 0 1 3.068,0 l 16.319,16.318 a 2.169,2.169 0 0 1 0,3.068 L 20.022,36.341 a 2.17,2.17 0 0 1 -3.068,0 L 0.636,20.022 a 2.169,2.169 0 0 1 0,-3.068"
         fill="#1b3e67" />
      <path
         id="Path_3102-0"
         data-name="Path 3102"
         d="m 23.277,10.9 a 7.453,7.453 0 0 0 -7.453,7.453 c 0,0.2 0.009,0.4 0.024,0.6 V 31.58 l 5.922,-5.922 a 7.545,7.545 0 0 0 1.507,0.152 7.454,7.454 0 0 0 7.454,-7.452 v 0 A 7.454,7.454 0 0 0 23.277,10.9"
         transform="translate(-4.329,-2.983)"
         fill="#edeeef" />
      <path
         id="Path_3103-3"
         data-name="Path 3103"
         d="m 24.24,14.133 a 4.9,4.9 0 1 1 -4.9,4.9 4.9,4.9 0 0 1 4.9,-4.9"
         transform="translate(-5.291,-3.867)"
         fill="#3e5379" />
    </g>
  </g>
</svg>
